<svg width="188" height="188" viewBox="0 0 188 188" fill="none" xmlns="http://www.w3.org/2000/svg">
<g clip-path="url(#clip0_557_5893)">
<path d="M93.9985 187.997C145.912 187.997 187.997 145.912 187.997 93.9985C187.997 42.0846 145.912 0 93.9985 0C42.0846 0 0 42.0846 0 93.9985C0 145.912 42.0846 187.997 93.9985 187.997Z" fill="#FFBE26"/>
<path d="M52.0156 18.7548C55.2859 22.311 47.0879 26.1157 39.2702 33.3047C31.4524 40.4937 26.9753 48.3446 23.705 44.7883C20.4348 41.2321 24.1213 32.5213 31.939 25.3323C39.7568 18.1434 48.7454 15.1985 52.0156 18.7548Z" fill="#FFDB94"/>
<path d="M94.1958 169.831C93.4773 166.815 101.055 166.823 109.897 164.716C118.74 162.609 125.499 159.186 126.218 162.202C126.936 165.218 120.35 169.37 111.508 171.477C102.665 173.584 94.9143 172.846 94.1958 169.831Z" fill="#F1AA04"/>
<path d="M19.7281 46.9314C22.0499 48.077 21.1052 50.344 19.0866 54.435C17.0681 58.5261 16.2377 60.8074 13.9159 59.6618C11.594 58.5162 11.4229 55.8429 13.4414 51.7518C15.4599 47.6608 17.4062 45.7858 19.7281 46.9314Z" fill="#FFDB94"/>
<path d="M128.233 160.968C127.584 159.777 128.673 159.09 130.772 157.947C132.871 156.803 133.915 156.076 134.564 157.267C135.213 158.459 134.48 159.656 132.381 160.8C130.282 161.943 128.882 162.159 128.233 160.968Z" fill="#F1AA04"/>
<path d="M93.8792 173.984C93.9599 173.134 94.7695 173.159 96.2672 173.301C97.7649 173.443 98.5655 173.432 98.4848 174.282C98.4041 175.132 97.6002 175.498 96.1025 175.356C94.6048 175.214 93.7986 174.834 93.8792 173.984Z" fill="#F1AA04"/>
<path d="M72.1361 103.427C82.3364 103.427 90.6054 95.1578 90.6054 84.9574C90.6054 74.7571 82.3364 66.4881 72.1361 66.4881C61.9357 66.4881 53.6667 74.7571 53.6667 84.9574C53.6667 95.1578 61.9357 103.427 72.1361 103.427Z" fill="#E4F6FF"/>
<path d="M147.067 103.427C157.267 103.427 165.536 95.1578 165.536 84.9574C165.536 74.7571 157.267 66.4881 147.067 66.4881C136.867 66.4881 128.598 74.7571 128.598 84.9574C128.598 95.1578 136.867 103.427 147.067 103.427Z" fill="#E4F6FF"/>
<path d="M151.459 90.1243C156.122 90.1243 159.902 86.3442 159.902 81.6812C159.902 77.0182 156.122 73.2381 151.459 73.2381C146.796 73.2381 143.016 77.0182 143.016 81.6812C143.016 86.3442 146.796 90.1243 151.459 90.1243Z" fill="black"/>
<path d="M75.9144 90.1243C80.5774 90.1243 84.3575 86.3442 84.3575 81.6812C84.3575 77.0182 80.5774 73.2381 75.9144 73.2381C71.2514 73.2381 67.4713 77.0182 67.4713 81.6812C67.4713 86.3442 71.2514 90.1243 75.9144 90.1243Z" fill="black"/>
<path d="M53.2979 60.2776L88.8841 55.6709" stroke="black" stroke-width="5.19008"/>
<path d="M131.761 53.9343L167.437 57.7764" stroke="black" stroke-width="5.19008"/>
<path d="M93.4218 122.256C98.0353 132.059 113.894 149.072 128.311 122.832" stroke="black" stroke-width="4.99992"/>
</g>
<defs>
<clipPath id="clip0_557_5893">
<rect width="187.997" height="187.997" fill="white"/>
</clipPath>
</defs>
</svg>
