<svg width="200" height="62" viewBox="0 0 200 62" fill="none" xmlns="http://www.w3.org/2000/svg">
<path d="M0 12C0 5.37258 5.37258 0 12 0H188C194.627 0 200 5.37258 200 12V49.5C200 56.1274 194.627 61.5 188 61.5H12C5.37258 61.5 0 56.1274 0 49.5V12Z" fill="black"/>
<g clip-path="url(#clip0_4_426)">
<path d="M25.5 16.95C25.2 17.35 25 17.95 25 18.75V42.75C25 43.55 25.2 44.15 25.5 44.55L25.6 44.65L39 31.25V30.95L25.6 16.85L25.5 16.95Z" fill="url(#paint0_linear_4_426)"/>
<path d="M43.5 35.75L39 31.25V30.95L43.5 26.45L43.6 26.55L48.9 29.55C50.4 30.45 50.4 31.85 48.9 32.75L43.6 35.75L43.5 35.85V35.75Z" fill="url(#paint1_linear_4_426)"/>
<path d="M43.6 35.65L39 30.95L25.5 44.55C26 45.05 26.8 45.15 27.7 44.65L43.7 35.65H43.6Z" fill="url(#paint2_linear_4_426)"/>
<path d="M43.6 25.85L27.6 16.85C26.7 16.35 25.9 16.45 25.4 16.95L39 30.95L43.6 25.85Z" fill="url(#paint3_linear_4_426)"/>
</g>
<path d="M70.0791 19.0599V21.6625C69.9912 21.7927 69.8512 21.9392 69.6592 22.1019C69.4671 22.2614 69.2018 22.4014 68.8633 22.5219C68.528 22.639 68.0951 22.6976 67.5645 22.6976C67.1315 22.6976 66.7327 22.6228 66.3682 22.473C66.0068 22.32 65.6927 22.0987 65.4258 21.809C65.1621 21.516 64.957 21.1612 64.8105 20.7445C64.6673 20.3246 64.5957 19.8493 64.5957 19.3187V18.767C64.5957 18.2364 64.6576 17.7627 64.7812 17.3461C64.9082 16.9294 65.0938 16.5762 65.3379 16.2865C65.582 15.9935 65.8815 15.7722 66.2363 15.6224C66.5911 15.4694 66.998 15.3929 67.457 15.3929C68.0007 15.3929 68.4548 15.4873 68.8193 15.6761C69.1872 15.8617 69.4736 16.1189 69.6787 16.4476C69.887 16.7764 70.0205 17.1508 70.0791 17.5707H69.1367C69.0944 17.3135 69.0098 17.0791 68.8828 16.8676C68.7591 16.656 68.5817 16.4867 68.3506 16.3597C68.1195 16.2295 67.8216 16.1644 67.457 16.1644C67.1283 16.1644 66.8434 16.2247 66.6025 16.3451C66.3617 16.4655 66.1631 16.6381 66.0068 16.8627C65.8506 17.0873 65.7334 17.3591 65.6553 17.6781C65.5804 17.9971 65.543 18.3568 65.543 18.7572V19.3187C65.543 19.7289 65.5902 20.0951 65.6846 20.4174C65.7822 20.7396 65.9206 21.0147 66.0996 21.2426C66.2786 21.4672 66.4919 21.6381 66.7393 21.7552C66.9899 21.8724 67.2666 21.931 67.5693 21.931C67.9046 21.931 68.1764 21.9034 68.3848 21.848C68.5931 21.7894 68.7559 21.7211 68.873 21.6429C68.9902 21.5616 69.0798 21.4851 69.1416 21.4135V19.8217H67.4961V19.0599H70.0791ZM76.1582 21.8334V22.6H72.3936V21.8334H76.1582ZM72.584 15.4906V22.6H71.6416V15.4906H72.584ZM75.6602 18.5472V19.3138H72.3936V18.5472H75.6602ZM76.1094 15.4906V16.2621H72.3936V15.4906H76.1094ZM80.0498 15.4906V22.6H79.1221V15.4906H80.0498ZM82.335 15.4906V16.2621H76.8418V15.4906H82.335ZM86.6855 15.4906V22.6H85.7432V15.4906H86.6855ZM90.8799 15.4906V22.6H89.9521V15.4906H90.8799ZM93.165 15.4906V16.2621H87.6719V15.4906H93.165ZM101.979 18.8207V19.2699C101.979 19.8038 101.912 20.2823 101.778 20.7054C101.645 21.1286 101.453 21.4883 101.202 21.7845C100.951 22.0808 100.65 22.307 100.299 22.4633C99.9505 22.6195 99.5599 22.6976 99.127 22.6976C98.707 22.6976 98.3213 22.6195 97.9697 22.4633C97.6214 22.307 97.3187 22.0808 97.0615 21.7845C96.8076 21.4883 96.6107 21.1286 96.4707 20.7054C96.3307 20.2823 96.2607 19.8038 96.2607 19.2699V18.8207C96.2607 18.2868 96.3291 17.8099 96.4658 17.39C96.6058 16.9668 96.8027 16.6071 97.0566 16.3109C97.3105 16.0114 97.6117 15.7836 97.96 15.6273C98.3115 15.4711 98.6973 15.3929 99.1172 15.3929C99.5501 15.3929 99.9408 15.4711 100.289 15.6273C100.641 15.7836 100.942 16.0114 101.192 16.3109C101.446 16.6071 101.64 16.9668 101.773 17.39C101.91 17.8099 101.979 18.2868 101.979 18.8207ZM101.046 19.2699V18.8109C101.046 18.3877 101.002 18.0134 100.914 17.6879C100.829 17.3623 100.704 17.0889 100.538 16.8676C100.372 16.6462 100.169 16.4786 99.9277 16.3646C99.6901 16.2507 99.4199 16.1937 99.1172 16.1937C98.8242 16.1937 98.5589 16.2507 98.3213 16.3646C98.0869 16.4786 97.8851 16.6462 97.7158 16.8676C97.5498 17.0889 97.4212 17.3623 97.3301 17.6879C97.2389 18.0134 97.1934 18.3877 97.1934 18.8109V19.2699C97.1934 19.6963 97.2389 20.0739 97.3301 20.4027C97.4212 20.7282 97.5514 21.0033 97.7207 21.2279C97.8932 21.4493 98.0967 21.6169 98.3311 21.7308C98.5687 21.8448 98.834 21.9017 99.127 21.9017C99.4329 21.9017 99.7048 21.8448 99.9424 21.7308C100.18 21.6169 100.38 21.4493 100.543 21.2279C100.709 21.0033 100.834 20.7282 100.919 20.4027C101.004 20.0739 101.046 19.6963 101.046 19.2699ZM108.858 15.4906V22.6H107.911L104.332 17.1166V22.6H103.39V15.4906H104.332L107.926 20.9886V15.4906H108.858Z" fill="white"/>
<path d="M75.2852 37.3115V42.3828C75.0859 42.623 74.7783 42.8838 74.3623 43.165C73.9463 43.4404 73.4102 43.6777 72.7539 43.877C72.0977 44.0762 71.3037 44.1758 70.3721 44.1758C69.5459 44.1758 68.793 44.041 68.1133 43.7715C67.4336 43.4961 66.8477 43.0947 66.3555 42.5674C65.8691 42.04 65.4941 41.3955 65.2305 40.6338C64.9668 39.8662 64.835 38.9902 64.835 38.0059V37.2061C64.835 36.2217 64.9609 35.3457 65.2129 34.5781C65.4707 33.8105 65.8369 33.1631 66.3115 32.6357C66.7861 32.1084 67.3516 31.707 68.0078 31.4316C68.6641 31.1562 69.3936 31.0186 70.1963 31.0186C71.3096 31.0186 72.2236 31.2002 72.9385 31.5635C73.6533 31.9209 74.1982 32.4189 74.5732 33.0576C74.9541 33.6904 75.1885 34.417 75.2764 35.2373H72.7188C72.6543 34.8037 72.5312 34.4258 72.3496 34.1035C72.168 33.7812 71.9072 33.5293 71.5674 33.3477C71.2334 33.166 70.7998 33.0752 70.2666 33.0752C69.8271 33.0752 69.4346 33.166 69.0889 33.3477C68.749 33.5234 68.4619 33.7842 68.2275 34.1299C67.9932 34.4756 67.8145 34.9033 67.6914 35.4131C67.5684 35.9229 67.5068 36.5146 67.5068 37.1885V38.0059C67.5068 38.6738 67.5713 39.2656 67.7002 39.7812C67.8291 40.291 68.0195 40.7217 68.2715 41.0732C68.5293 41.4189 68.8457 41.6797 69.2207 41.8555C69.5957 42.0312 70.0322 42.1191 70.5303 42.1191C70.9463 42.1191 71.292 42.084 71.5674 42.0137C71.8486 41.9434 72.0742 41.8584 72.2441 41.7588C72.4199 41.6533 72.5547 41.5537 72.6484 41.46V39.1924H70.2402V37.3115H75.2852ZM76.8496 39.3418V39.1572C76.8496 38.46 76.9492 37.8184 77.1484 37.2324C77.3477 36.6406 77.6377 36.1279 78.0186 35.6943C78.3994 35.2607 78.8682 34.9238 79.4248 34.6836C79.9814 34.4375 80.6201 34.3145 81.3408 34.3145C82.0615 34.3145 82.7031 34.4375 83.2656 34.6836C83.8281 34.9238 84.2998 35.2607 84.6807 35.6943C85.0674 36.1279 85.3604 36.6406 85.5596 37.2324C85.7588 37.8184 85.8584 38.46 85.8584 39.1572V39.3418C85.8584 40.0332 85.7588 40.6748 85.5596 41.2666C85.3604 41.8525 85.0674 42.3652 84.6807 42.8047C84.2998 43.2383 83.8311 43.5752 83.2744 43.8154C82.7178 44.0557 82.0791 44.1758 81.3584 44.1758C80.6377 44.1758 79.9961 44.0557 79.4336 43.8154C78.877 43.5752 78.4053 43.2383 78.0186 42.8047C77.6377 42.3652 77.3477 41.8525 77.1484 41.2666C76.9492 40.6748 76.8496 40.0332 76.8496 39.3418ZM79.3809 39.1572V39.3418C79.3809 39.7402 79.416 40.1123 79.4863 40.458C79.5566 40.8037 79.668 41.1084 79.8203 41.3721C79.9785 41.6299 80.1836 41.832 80.4355 41.9785C80.6875 42.125 80.9951 42.1982 81.3584 42.1982C81.71 42.1982 82.0117 42.125 82.2637 41.9785C82.5156 41.832 82.7178 41.6299 82.8701 41.3721C83.0225 41.1084 83.1338 40.8037 83.2041 40.458C83.2803 40.1123 83.3184 39.7402 83.3184 39.3418V39.1572C83.3184 38.7705 83.2803 38.4072 83.2041 38.0674C83.1338 37.7217 83.0195 37.417 82.8613 37.1533C82.709 36.8838 82.5068 36.6729 82.2549 36.5205C82.0029 36.3682 81.6982 36.292 81.3408 36.292C80.9834 36.292 80.6787 36.3682 80.4268 36.5205C80.1807 36.6729 79.9785 36.8838 79.8203 37.1533C79.668 37.417 79.5566 37.7217 79.4863 38.0674C79.416 38.4072 79.3809 38.7705 79.3809 39.1572ZM87.0098 39.3418V39.1572C87.0098 38.46 87.1094 37.8184 87.3086 37.2324C87.5078 36.6406 87.7979 36.1279 88.1787 35.6943C88.5596 35.2607 89.0283 34.9238 89.585 34.6836C90.1416 34.4375 90.7803 34.3145 91.501 34.3145C92.2217 34.3145 92.8633 34.4375 93.4258 34.6836C93.9883 34.9238 94.46 35.2607 94.8408 35.6943C95.2275 36.1279 95.5205 36.6406 95.7197 37.2324C95.9189 37.8184 96.0186 38.46 96.0186 39.1572V39.3418C96.0186 40.0332 95.9189 40.6748 95.7197 41.2666C95.5205 41.8525 95.2275 42.3652 94.8408 42.8047C94.46 43.2383 93.9912 43.5752 93.4346 43.8154C92.8779 44.0557 92.2393 44.1758 91.5186 44.1758C90.7979 44.1758 90.1562 44.0557 89.5938 43.8154C89.0371 43.5752 88.5654 43.2383 88.1787 42.8047C87.7979 42.3652 87.5078 41.8525 87.3086 41.2666C87.1094 40.6748 87.0098 40.0332 87.0098 39.3418ZM89.541 39.1572V39.3418C89.541 39.7402 89.5762 40.1123 89.6465 40.458C89.7168 40.8037 89.8281 41.1084 89.9805 41.3721C90.1387 41.6299 90.3438 41.832 90.5957 41.9785C90.8477 42.125 91.1553 42.1982 91.5186 42.1982C91.8701 42.1982 92.1719 42.125 92.4238 41.9785C92.6758 41.832 92.8779 41.6299 93.0303 41.3721C93.1826 41.1084 93.2939 40.8037 93.3643 40.458C93.4404 40.1123 93.4785 39.7402 93.4785 39.3418V39.1572C93.4785 38.7705 93.4404 38.4072 93.3643 38.0674C93.2939 37.7217 93.1797 37.417 93.0215 37.1533C92.8691 36.8838 92.667 36.6729 92.415 36.5205C92.1631 36.3682 91.8584 36.292 91.501 36.292C91.1436 36.292 90.8389 36.3682 90.5869 36.5205C90.3408 36.6729 90.1387 36.8838 89.9805 37.1533C89.8281 37.417 89.7168 37.7217 89.6465 38.0674C89.5762 38.4072 89.541 38.7705 89.541 39.1572ZM103.595 34.4902H105.889V43.6836C105.889 44.5508 105.695 45.2861 105.309 45.8896C104.928 46.499 104.395 46.959 103.709 47.2695C103.023 47.5859 102.227 47.7441 101.318 47.7441C100.92 47.7441 100.498 47.6914 100.053 47.5859C99.6133 47.4805 99.1914 47.3164 98.7871 47.0938C98.3887 46.8711 98.0547 46.5898 97.7852 46.25L98.9014 44.7559C99.1943 45.0957 99.5342 45.3594 99.9209 45.5469C100.308 45.7402 100.735 45.8369 101.204 45.8369C101.661 45.8369 102.048 45.752 102.364 45.582C102.681 45.418 102.924 45.1748 103.094 44.8525C103.264 44.5361 103.349 44.1523 103.349 43.7012V36.6875L103.595 34.4902ZM97.1963 39.3594V39.1748C97.1963 38.4482 97.2842 37.7891 97.46 37.1973C97.6416 36.5996 97.8965 36.0869 98.2246 35.6592C98.5586 35.2314 98.9629 34.9004 99.4375 34.666C99.9121 34.4316 100.448 34.3145 101.046 34.3145C101.679 34.3145 102.209 34.4316 102.637 34.666C103.064 34.9004 103.416 35.2344 103.691 35.668C103.967 36.0957 104.181 36.6025 104.333 37.1885C104.491 37.7686 104.614 38.4043 104.702 39.0957V39.5C104.614 40.1621 104.482 40.7773 104.307 41.3457C104.131 41.9141 103.899 42.4121 103.612 42.8398C103.325 43.2617 102.968 43.5898 102.54 43.8242C102.118 44.0586 101.614 44.1758 101.028 44.1758C100.442 44.1758 99.9121 44.0557 99.4375 43.8154C98.9688 43.5752 98.5674 43.2383 98.2334 42.8047C97.8994 42.3711 97.6416 41.8613 97.46 41.2754C97.2842 40.6895 97.1963 40.0508 97.1963 39.3594ZM99.7275 39.1748V39.3594C99.7275 39.752 99.7656 40.1182 99.8418 40.458C99.918 40.7979 100.035 41.0996 100.193 41.3633C100.357 41.6211 100.56 41.8232 100.8 41.9697C101.046 42.1104 101.336 42.1807 101.67 42.1807C102.133 42.1807 102.511 42.084 102.804 41.8906C103.097 41.6914 103.316 41.4189 103.463 41.0732C103.609 40.7275 103.694 40.3291 103.718 39.8779V38.7266C103.706 38.3574 103.656 38.0264 103.568 37.7334C103.48 37.4346 103.357 37.1797 103.199 36.9688C103.041 36.7578 102.836 36.5938 102.584 36.4766C102.332 36.3594 102.033 36.3008 101.688 36.3008C101.354 36.3008 101.063 36.377 100.817 36.5293C100.577 36.6758 100.375 36.8779 100.211 37.1357C100.053 37.3936 99.9326 37.6982 99.8506 38.0498C99.7686 38.3955 99.7275 38.7705 99.7275 39.1748ZM110.529 30.5V44H107.989V30.5H110.529ZM116.998 44.1758C116.26 44.1758 115.598 44.0586 115.012 43.8242C114.426 43.584 113.928 43.2529 113.518 42.8311C113.113 42.4092 112.803 41.9199 112.586 41.3633C112.369 40.8008 112.261 40.2031 112.261 39.5703V39.2188C112.261 38.498 112.363 37.8389 112.568 37.2412C112.773 36.6436 113.066 36.125 113.447 35.6855C113.834 35.2461 114.303 34.9092 114.854 34.6748C115.404 34.4346 116.025 34.3145 116.717 34.3145C117.391 34.3145 117.988 34.4258 118.51 34.6484C119.031 34.8711 119.468 35.1875 119.819 35.5977C120.177 36.0078 120.446 36.5 120.628 37.0742C120.81 37.6426 120.9 38.2754 120.9 38.9727V40.0273H113.342V38.3398H118.413V38.1465C118.413 37.7949 118.349 37.4814 118.22 37.2061C118.097 36.9248 117.909 36.7021 117.657 36.5381C117.405 36.374 117.083 36.292 116.69 36.292C116.356 36.292 116.069 36.3652 115.829 36.5117C115.589 36.6582 115.393 36.8633 115.24 37.127C115.094 37.3906 114.982 37.7012 114.906 38.0586C114.836 38.4102 114.801 38.7969 114.801 39.2188V39.5703C114.801 39.9512 114.854 40.3027 114.959 40.625C115.07 40.9473 115.226 41.2256 115.425 41.46C115.63 41.6943 115.876 41.876 116.163 42.0049C116.456 42.1338 116.787 42.1982 117.156 42.1982C117.613 42.1982 118.038 42.1104 118.431 41.9346C118.829 41.7529 119.172 41.4805 119.459 41.1172L120.689 42.4531C120.49 42.7402 120.218 43.0156 119.872 43.2793C119.532 43.543 119.122 43.7598 118.642 43.9297C118.161 44.0938 117.613 44.1758 116.998 44.1758ZM131.966 39.4385H128.705V37.3818H131.966C132.47 37.3818 132.88 37.2998 133.196 37.1357C133.513 36.9658 133.744 36.7314 133.891 36.4326C134.037 36.1338 134.11 35.7969 134.11 35.4219C134.11 35.041 134.037 34.6865 133.891 34.3584C133.744 34.0303 133.513 33.7666 133.196 33.5674C132.88 33.3682 132.47 33.2686 131.966 33.2686H129.619V44H126.982V31.2031H131.966C132.968 31.2031 133.826 31.3848 134.541 31.748C135.262 32.1055 135.812 32.6006 136.193 33.2334C136.574 33.8662 136.765 34.5898 136.765 35.4043C136.765 36.2305 136.574 36.9453 136.193 37.5488C135.812 38.1523 135.262 38.6182 134.541 38.9463C133.826 39.2744 132.968 39.4385 131.966 39.4385ZM141.098 30.5V44H138.558V30.5H141.098ZM148.322 41.8555V37.6191C148.322 37.3145 148.272 37.0537 148.173 36.8369C148.073 36.6143 147.918 36.4414 147.707 36.3184C147.502 36.1953 147.235 36.1338 146.907 36.1338C146.626 36.1338 146.383 36.1836 146.178 36.2832C145.973 36.377 145.814 36.5146 145.703 36.6963C145.592 36.8721 145.536 37.0801 145.536 37.3203H143.005C143.005 36.916 143.099 36.5322 143.286 36.1689C143.474 35.8057 143.746 35.4863 144.104 35.2109C144.461 34.9297 144.886 34.71 145.378 34.5518C145.876 34.3936 146.433 34.3145 147.048 34.3145C147.786 34.3145 148.442 34.4375 149.017 34.6836C149.591 34.9297 150.042 35.2988 150.37 35.791C150.704 36.2832 150.871 36.8984 150.871 37.6367V41.7061C150.871 42.2275 150.903 42.6553 150.968 42.9893C151.032 43.3174 151.126 43.6045 151.249 43.8506V44H148.691C148.568 43.7422 148.475 43.4199 148.41 43.0332C148.352 42.6406 148.322 42.248 148.322 41.8555ZM148.656 38.208L148.674 39.6406H147.259C146.925 39.6406 146.635 39.6787 146.389 39.7549C146.143 39.8311 145.94 39.9395 145.782 40.0801C145.624 40.2148 145.507 40.373 145.431 40.5547C145.36 40.7363 145.325 40.9355 145.325 41.1523C145.325 41.3691 145.375 41.5654 145.475 41.7412C145.574 41.9111 145.718 42.0459 145.905 42.1455C146.093 42.2393 146.312 42.2861 146.564 42.2861C146.945 42.2861 147.276 42.21 147.558 42.0576C147.839 41.9053 148.056 41.7178 148.208 41.4951C148.366 41.2725 148.448 41.0615 148.454 40.8623L149.122 41.9346C149.028 42.1748 148.899 42.4238 148.735 42.6816C148.577 42.9395 148.375 43.1826 148.129 43.4111C147.883 43.6338 147.587 43.8184 147.241 43.9648C146.896 44.1055 146.485 44.1758 146.011 44.1758C145.407 44.1758 144.859 44.0557 144.367 43.8154C143.881 43.5693 143.494 43.2324 143.207 42.8047C142.926 42.3711 142.785 41.8789 142.785 41.3281C142.785 40.8301 142.879 40.3877 143.066 40.001C143.254 39.6143 143.529 39.2891 143.893 39.0254C144.262 38.7559 144.722 38.5537 145.272 38.4189C145.823 38.2783 146.462 38.208 147.188 38.208H148.656ZM155.503 42.9277L158.025 34.4902H160.741L156.918 45.4326C156.836 45.6729 156.725 45.9307 156.584 46.2061C156.449 46.4814 156.265 46.7422 156.03 46.9883C155.802 47.2402 155.512 47.4453 155.16 47.6035C154.814 47.7617 154.39 47.8408 153.886 47.8408C153.646 47.8408 153.449 47.8262 153.297 47.7969C153.145 47.7676 152.963 47.7266 152.752 47.6738V45.8193C152.816 45.8193 152.884 45.8193 152.954 45.8193C153.024 45.8252 153.092 45.8281 153.156 45.8281C153.49 45.8281 153.763 45.79 153.974 45.7139C154.185 45.6377 154.354 45.5205 154.483 45.3623C154.612 45.21 154.715 45.0107 154.791 44.7646L155.503 42.9277ZM154.448 34.4902L156.514 41.3809L156.874 44.0615L155.151 44.2461L151.732 34.4902H154.448Z" fill="white"/>
<defs>
<linearGradient id="paint0_linear_4_426" x1="37.5" y1="18.35" x2="20.9" y2="34.95" gradientUnits="userSpaceOnUse">
<stop stop-color="#00A0FF"/>
<stop offset="0.007" stop-color="#00A1FF"/>
<stop offset="0.26" stop-color="#00BEFF"/>
<stop offset="0.512" stop-color="#00D2FF"/>
<stop offset="0.76" stop-color="#00DFFF"/>
<stop offset="1" stop-color="#00E3FF"/>
</linearGradient>
<linearGradient id="paint1_linear_4_426" x1="50.3" y1="30.95" x2="24.5" y2="30.95" gradientUnits="userSpaceOnUse">
<stop stop-color="#FFE000"/>
<stop offset="0.409" stop-color="#FFBD00"/>
<stop offset="0.775" stop-color="#FFA500"/>
<stop offset="1" stop-color="#FF9C00"/>
</linearGradient>
<linearGradient id="paint2_linear_4_426" x1="41.3" y1="33.25" x2="22" y2="52.55" gradientUnits="userSpaceOnUse">
<stop stop-color="#FF3A44"/>
<stop offset="1" stop-color="#C31162"/>
</linearGradient>
<linearGradient id="paint3_linear_4_426" x1="22.9" y1="10.15" x2="32.4" y2="19.65" gradientUnits="userSpaceOnUse">
<stop stop-color="#32A071"/>
<stop offset="0.069" stop-color="#2DA771"/>
<stop offset="0.476" stop-color="#15CF74"/>
<stop offset="0.801" stop-color="#06E775"/>
<stop offset="1" stop-color="#00F076"/>
</linearGradient>
<clipPath id="clip0_4_426">
<rect width="28" height="30" fill="white" transform="translate(24 15.75)"/>
</clipPath>
</defs>
</svg>
