<svg width="200" height="62" viewBox="0 0 200 62" fill="none" xmlns="http://www.w3.org/2000/svg">
<path d="M0 12C0 5.37258 5.37258 0 12 0H188C194.627 0 200 5.37258 200 12V49.5C200 56.1274 194.627 61.5 188 61.5H12C5.37258 61.5 0 56.1274 0 49.5V12Z" fill="black"/>
<path d="M49.4 32.25C49.4 28.35 52.6 26.45 52.7 26.35C50.9 23.75 48.1 23.35 47.1 23.35C44.7 23.15 42.5 24.75 41.3 24.75C40.1 24.75 38.3 23.35 36.3 23.45C33.8 23.45 31.5 24.95 30.2 27.15C27.6 31.65 29.5 38.35 32.1 41.95C33.4 43.75 34.9 45.75 36.9 45.65C38.8 45.55 39.6 44.45 41.9 44.45C44.2 44.45 44.9 45.65 46.9 45.65C49 45.65 50.3 43.8499 51.5 42.0499C53 39.9499 53.6 37.95 53.6 37.85C53.5 37.85 49.7 36.35 49.7 31.95L49.4 32.25ZM45.5 20.35C46.6 19.05 47.3 17.25 47.1 15.45C45.6 15.55 43.7 16.45 42.6 17.75C41.6 18.85 40.8 20.65 41 22.35C42.7 22.45 44.5 21.45 45.5 20.35Z" fill="white"/>
<path d="M68.749 22.6H67.2646L67.2744 21.8334H68.749C69.2568 21.8334 69.68 21.7276 70.0186 21.516C70.3571 21.3011 70.611 21.0017 70.7803 20.6176C70.9528 20.2302 71.0391 19.7777 71.0391 19.2601V18.8256C71.0391 18.4187 70.9902 18.0573 70.8926 17.7416C70.7949 17.4226 70.6517 17.154 70.4629 16.9359C70.2741 16.7146 70.043 16.5469 69.7695 16.433C69.4993 16.3191 69.1885 16.2621 68.8369 16.2621H67.2354V15.4906H68.8369C69.3024 15.4906 69.7272 15.5687 70.1113 15.725C70.4954 15.878 70.8258 16.101 71.1025 16.3939C71.3825 16.6836 71.5973 17.0352 71.7471 17.4486C71.8968 17.8588 71.9717 18.321 71.9717 18.8353V19.2601C71.9717 19.7745 71.8968 20.2383 71.7471 20.6517C71.5973 21.0619 71.3809 21.4118 71.0977 21.7015C70.8177 21.9913 70.4792 22.2142 70.082 22.3705C69.6882 22.5235 69.2438 22.6 68.749 22.6ZM67.7676 15.4906V22.6H66.8252V15.4906H67.7676ZM73.0117 20.017V19.9047C73.0117 19.5238 73.0671 19.1706 73.1777 18.8451C73.2884 18.5163 73.4479 18.2315 73.6562 17.9906C73.8646 17.7465 74.1169 17.5577 74.4131 17.4242C74.7093 17.2875 75.0413 17.2191 75.4092 17.2191C75.7803 17.2191 76.1139 17.2875 76.4102 17.4242C76.7096 17.5577 76.9635 17.7465 77.1719 17.9906C77.3835 18.2315 77.5446 18.5163 77.6553 18.8451C77.766 19.1706 77.8213 19.5238 77.8213 19.9047V20.017C77.8213 20.3978 77.766 20.751 77.6553 21.0765C77.5446 21.4021 77.3835 21.6869 77.1719 21.931C76.9635 22.1719 76.7113 22.3607 76.415 22.4974C76.1221 22.6309 75.79 22.6976 75.4189 22.6976C75.0479 22.6976 74.7142 22.6309 74.418 22.4974C74.1217 22.3607 73.8678 22.1719 73.6562 21.931C73.4479 21.6869 73.2884 21.4021 73.1777 21.0765C73.0671 20.751 73.0117 20.3978 73.0117 20.017ZM73.915 19.9047V20.017C73.915 20.2806 73.946 20.5297 74.0078 20.764C74.0697 20.9952 74.1624 21.2002 74.2861 21.3793C74.4131 21.5583 74.571 21.6999 74.7598 21.8041C74.9486 21.905 75.1683 21.9554 75.4189 21.9554C75.6663 21.9554 75.8828 21.905 76.0684 21.8041C76.2572 21.6999 76.4134 21.5583 76.5371 21.3793C76.6608 21.2002 76.7536 20.9952 76.8154 20.764C76.8805 20.5297 76.9131 20.2806 76.9131 20.017V19.9047C76.9131 19.6442 76.8805 19.3985 76.8154 19.1674C76.7536 18.933 76.6592 18.7263 76.5322 18.5472C76.4085 18.3649 76.2523 18.2217 76.0635 18.1176C75.8779 18.0134 75.6598 17.9613 75.4092 17.9613C75.1618 17.9613 74.9437 18.0134 74.7549 18.1176C74.5693 18.2217 74.4131 18.3649 74.2861 18.5472C74.1624 18.7263 74.0697 18.933 74.0078 19.1674C73.946 19.3985 73.915 19.6442 73.915 19.9047ZM80.292 21.6625L81.6494 17.3168H82.2451L82.1279 18.181L80.7461 22.6H80.165L80.292 21.6625ZM79.3789 17.3168L80.5361 21.7113L80.6191 22.6H80.0088L78.4756 17.3168H79.3789ZM83.5439 21.6771L84.6475 17.3168H85.5459L84.0127 22.6H83.4072L83.5439 21.6771ZM82.377 17.3168L83.7051 21.5892L83.8564 22.6H83.2803L81.8594 18.1713L81.7422 17.3168H82.377ZM87.377 18.4447V22.6H86.4736V17.3168H87.3281L87.377 18.4447ZM87.1621 19.7582L86.7861 19.7435C86.7894 19.3822 86.8431 19.0485 86.9473 18.7426C87.0514 18.4333 87.1979 18.1648 87.3867 17.9369C87.5755 17.709 87.8001 17.5332 88.0605 17.4095C88.3242 17.2826 88.6156 17.2191 88.9346 17.2191C89.195 17.2191 89.4294 17.2549 89.6377 17.3265C89.846 17.3949 90.0234 17.5056 90.1699 17.6586C90.3197 17.8116 90.4336 18.0101 90.5117 18.2543C90.5898 18.4952 90.6289 18.7898 90.6289 19.1381V22.6H89.7207V19.1283C89.7207 18.8516 89.68 18.6302 89.5986 18.4642C89.5173 18.295 89.3984 18.1729 89.2422 18.098C89.0859 18.0199 88.8939 17.9808 88.666 17.9808C88.4414 17.9808 88.2363 18.028 88.0508 18.1224C87.8685 18.2168 87.7106 18.347 87.5771 18.5131C87.4469 18.6791 87.3444 18.8695 87.2695 19.0844C87.1979 19.2959 87.1621 19.5205 87.1621 19.7582ZM92.9824 15.1V22.6H92.0742V15.1H92.9824ZM94.1934 20.017V19.9047C94.1934 19.5238 94.2487 19.1706 94.3594 18.8451C94.4701 18.5163 94.6296 18.2315 94.8379 17.9906C95.0462 17.7465 95.2985 17.5577 95.5947 17.4242C95.891 17.2875 96.223 17.2191 96.5908 17.2191C96.9619 17.2191 97.2956 17.2875 97.5918 17.4242C97.8913 17.5577 98.1452 17.7465 98.3535 17.9906C98.5651 18.2315 98.7262 18.5163 98.8369 18.8451C98.9476 19.1706 99.0029 19.5238 99.0029 19.9047V20.017C99.0029 20.3978 98.9476 20.751 98.8369 21.0765C98.7262 21.4021 98.5651 21.6869 98.3535 21.931C98.1452 22.1719 97.8929 22.3607 97.5967 22.4974C97.3037 22.6309 96.9717 22.6976 96.6006 22.6976C96.2295 22.6976 95.8958 22.6309 95.5996 22.4974C95.3034 22.3607 95.0495 22.1719 94.8379 21.931C94.6296 21.6869 94.4701 21.4021 94.3594 21.0765C94.2487 20.751 94.1934 20.3978 94.1934 20.017ZM95.0967 19.9047V20.017C95.0967 20.2806 95.1276 20.5297 95.1895 20.764C95.2513 20.9952 95.3441 21.2002 95.4678 21.3793C95.5947 21.5583 95.7526 21.6999 95.9414 21.8041C96.1302 21.905 96.3499 21.9554 96.6006 21.9554C96.848 21.9554 97.0645 21.905 97.25 21.8041C97.4388 21.6999 97.5951 21.5583 97.7188 21.3793C97.8424 21.2002 97.9352 20.9952 97.9971 20.764C98.0622 20.5297 98.0947 20.2806 98.0947 20.017V19.9047C98.0947 19.6442 98.0622 19.3985 97.9971 19.1674C97.9352 18.933 97.8408 18.7263 97.7139 18.5472C97.5902 18.3649 97.4339 18.2217 97.2451 18.1176C97.0596 18.0134 96.8415 17.9613 96.5908 17.9613C96.3434 17.9613 96.1253 18.0134 95.9365 18.1176C95.751 18.2217 95.5947 18.3649 95.4678 18.5472C95.3441 18.7263 95.2513 18.933 95.1895 19.1674C95.1276 19.3985 95.0967 19.6442 95.0967 19.9047ZM103.251 21.6967V18.9769C103.251 18.7686 103.209 18.5879 103.124 18.4349C103.043 18.2787 102.919 18.1582 102.753 18.0736C102.587 17.989 102.382 17.9467 102.138 17.9467C101.91 17.9467 101.71 17.9857 101.537 18.0638C101.368 18.142 101.234 18.2445 101.137 18.3715C101.042 18.4984 100.995 18.6351 100.995 18.7816H100.092C100.092 18.5928 100.141 18.4056 100.238 18.2201C100.336 18.0345 100.476 17.8669 100.658 17.7172C100.844 17.5642 101.065 17.4437 101.322 17.3558C101.583 17.2647 101.872 17.2191 102.191 17.2191C102.576 17.2191 102.914 17.2842 103.207 17.4144C103.503 17.5446 103.734 17.7416 103.9 18.0052C104.07 18.2657 104.154 18.5928 104.154 18.9867V21.4476C104.154 21.6234 104.169 21.8106 104.198 22.0092C104.231 22.2077 104.278 22.3786 104.34 22.5219V22.6H103.397C103.352 22.4958 103.316 22.3575 103.29 22.1849C103.264 22.0092 103.251 21.8464 103.251 21.6967ZM103.407 19.3969L103.417 20.0316H102.504C102.247 20.0316 102.017 20.0528 101.815 20.0951C101.614 20.1342 101.444 20.1944 101.308 20.2758C101.171 20.3571 101.067 20.4597 100.995 20.5834C100.924 20.7038 100.888 20.8454 100.888 21.0082C100.888 21.1742 100.925 21.3256 101 21.4623C101.075 21.599 101.187 21.708 101.337 21.7894C101.49 21.8676 101.677 21.9066 101.898 21.9066C102.175 21.9066 102.419 21.848 102.631 21.7308C102.842 21.6136 103.01 21.4704 103.134 21.3011C103.261 21.1319 103.329 20.9675 103.339 20.808L103.725 21.2426C103.702 21.3793 103.64 21.5306 103.539 21.6967C103.438 21.8627 103.303 22.0222 103.134 22.1752C102.968 22.3249 102.769 22.4502 102.538 22.5511C102.31 22.6488 102.053 22.6976 101.767 22.6976C101.409 22.6976 101.094 22.6276 100.824 22.4877C100.557 22.3477 100.349 22.1605 100.199 21.9261C100.053 21.6885 99.9795 21.4232 99.9795 21.1302C99.9795 20.847 100.035 20.598 100.146 20.3832C100.256 20.1651 100.416 19.9844 100.624 19.8412C100.832 19.6947 101.083 19.584 101.376 19.5092C101.669 19.4343 101.996 19.3969 102.357 19.3969H103.407ZM108.905 21.5746V15.1H109.813V22.6H108.983L108.905 21.5746ZM105.351 20.017V19.9144C105.351 19.5108 105.399 19.1446 105.497 18.8158C105.598 18.4838 105.74 18.1989 105.922 17.9613C106.107 17.7237 106.327 17.5414 106.581 17.4144C106.838 17.2842 107.125 17.2191 107.44 17.2191C107.772 17.2191 108.062 17.2777 108.31 17.3949C108.56 17.5088 108.772 17.6765 108.944 17.8978C109.12 18.1159 109.258 18.3796 109.359 18.6888C109.46 18.9981 109.53 19.348 109.569 19.7386V20.1879C109.534 20.5752 109.464 20.9235 109.359 21.2328C109.258 21.542 109.12 21.8057 108.944 22.0238C108.772 22.2419 108.56 22.4095 108.31 22.5267C108.059 22.6407 107.766 22.6976 107.431 22.6976C107.121 22.6976 106.838 22.6309 106.581 22.4974C106.327 22.364 106.107 22.1768 105.922 21.9359C105.74 21.695 105.598 21.4118 105.497 21.0863C105.399 20.7575 105.351 20.4011 105.351 20.017ZM106.259 19.9144V20.017C106.259 20.2806 106.285 20.528 106.337 20.7592C106.392 20.9903 106.477 21.1937 106.591 21.3695C106.705 21.5453 106.85 21.6836 107.025 21.7845C107.201 21.8822 107.411 21.931 107.655 21.931C107.955 21.931 108.201 21.8676 108.393 21.7406C108.588 21.6136 108.744 21.446 108.861 21.2377C108.979 21.0293 109.07 20.8031 109.135 20.559V19.3822C109.096 19.2032 109.039 19.0306 108.964 18.8646C108.892 18.6954 108.798 18.5456 108.681 18.4154C108.567 18.2819 108.425 18.1761 108.256 18.098C108.09 18.0199 107.893 17.9808 107.665 17.9808C107.418 17.9808 107.204 18.0329 107.025 18.1371C106.85 18.238 106.705 18.378 106.591 18.557C106.477 18.7328 106.392 18.9379 106.337 19.1722C106.285 19.4034 106.259 19.6508 106.259 19.9144ZM113.461 20.017V19.9047C113.461 19.5238 113.516 19.1706 113.627 18.8451C113.738 18.5163 113.897 18.2315 114.105 17.9906C114.314 17.7465 114.566 17.5577 114.862 17.4242C115.159 17.2875 115.491 17.2191 115.858 17.2191C116.229 17.2191 116.563 17.2875 116.859 17.4242C117.159 17.5577 117.413 17.7465 117.621 17.9906C117.833 18.2315 117.994 18.5163 118.104 18.8451C118.215 19.1706 118.271 19.5238 118.271 19.9047V20.017C118.271 20.3978 118.215 20.751 118.104 21.0765C117.994 21.4021 117.833 21.6869 117.621 21.931C117.413 22.1719 117.16 22.3607 116.864 22.4974C116.571 22.6309 116.239 22.6976 115.868 22.6976C115.497 22.6976 115.163 22.6309 114.867 22.4974C114.571 22.3607 114.317 22.1719 114.105 21.931C113.897 21.6869 113.738 21.4021 113.627 21.0765C113.516 20.751 113.461 20.3978 113.461 20.017ZM114.364 19.9047V20.017C114.364 20.2806 114.395 20.5297 114.457 20.764C114.519 20.9952 114.612 21.2002 114.735 21.3793C114.862 21.5583 115.02 21.6999 115.209 21.8041C115.398 21.905 115.618 21.9554 115.868 21.9554C116.116 21.9554 116.332 21.905 116.518 21.8041C116.706 21.6999 116.863 21.5583 116.986 21.3793C117.11 21.2002 117.203 20.9952 117.265 20.764C117.33 20.5297 117.362 20.2806 117.362 20.017V19.9047C117.362 19.6442 117.33 19.3985 117.265 19.1674C117.203 18.933 117.108 18.7263 116.981 18.5472C116.858 18.3649 116.701 18.2217 116.513 18.1176C116.327 18.0134 116.109 17.9613 115.858 17.9613C115.611 17.9613 115.393 18.0134 115.204 18.1176C115.019 18.2217 114.862 18.3649 114.735 18.5472C114.612 18.7263 114.519 18.933 114.457 19.1674C114.395 19.3985 114.364 19.6442 114.364 19.9047ZM120.307 18.4447V22.6H119.403V17.3168H120.258L120.307 18.4447ZM120.092 19.7582L119.716 19.7435C119.719 19.3822 119.773 19.0485 119.877 18.7426C119.981 18.4333 120.128 18.1648 120.316 17.9369C120.505 17.709 120.73 17.5332 120.99 17.4095C121.254 17.2826 121.545 17.2191 121.864 17.2191C122.125 17.2191 122.359 17.2549 122.567 17.3265C122.776 17.3949 122.953 17.5056 123.1 17.6586C123.249 17.8116 123.363 18.0101 123.441 18.2543C123.52 18.4952 123.559 18.7898 123.559 19.1381V22.6H122.65V19.1283C122.65 18.8516 122.61 18.6302 122.528 18.4642C122.447 18.295 122.328 18.1729 122.172 18.098C122.016 18.0199 121.824 17.9808 121.596 17.9808C121.371 17.9808 121.166 18.028 120.98 18.1224C120.798 18.2168 120.64 18.347 120.507 18.5131C120.377 18.6791 120.274 18.8695 120.199 19.0844C120.128 19.2959 120.092 19.5205 120.092 19.7582ZM129.623 17.3168V18.0101H126.767V17.3168H129.623ZM127.733 16.0326H128.637V21.2914C128.637 21.4704 128.664 21.6055 128.72 21.6967C128.775 21.7878 128.847 21.848 128.935 21.8773C129.022 21.9066 129.117 21.9213 129.218 21.9213C129.293 21.9213 129.371 21.9148 129.452 21.9017C129.537 21.8855 129.6 21.8724 129.643 21.8627L129.647 22.6C129.576 22.6228 129.481 22.6439 129.364 22.6635C129.25 22.6862 129.112 22.6976 128.949 22.6976C128.728 22.6976 128.524 22.6537 128.339 22.5658C128.153 22.4779 128.005 22.3314 127.895 22.1263C127.787 21.918 127.733 21.6381 127.733 21.2865V16.0326ZM131.586 15.1V22.6H130.683V15.1H131.586ZM131.371 19.7582L130.995 19.7435C130.998 19.3822 131.052 19.0485 131.156 18.7426C131.26 18.4333 131.407 18.1648 131.596 17.9369C131.785 17.709 132.009 17.5332 132.27 17.4095C132.533 17.2826 132.825 17.2191 133.144 17.2191C133.404 17.2191 133.638 17.2549 133.847 17.3265C134.055 17.3949 134.232 17.5056 134.379 17.6586C134.529 17.8116 134.643 18.0101 134.721 18.2543C134.799 18.4952 134.838 18.7898 134.838 19.1381V22.6H133.93V19.1283C133.93 18.8516 133.889 18.6302 133.808 18.4642C133.726 18.295 133.607 18.1729 133.451 18.098C133.295 18.0199 133.103 17.9808 132.875 17.9808C132.65 17.9808 132.445 18.028 132.26 18.1224C132.077 18.2168 131.92 18.347 131.786 18.5131C131.656 18.6791 131.553 18.8695 131.479 19.0844C131.407 19.2959 131.371 19.5205 131.371 19.7582ZM138.383 22.6976C138.015 22.6976 137.681 22.6358 137.382 22.5121C137.086 22.3851 136.83 22.2077 136.615 21.9799C136.404 21.752 136.241 21.4818 136.127 21.1693C136.013 20.8568 135.956 20.515 135.956 20.1439V19.9388C135.956 19.5092 136.02 19.1267 136.146 18.7914C136.273 18.4528 136.446 18.1664 136.664 17.932C136.882 17.6976 137.13 17.5202 137.406 17.3998C137.683 17.2793 137.969 17.2191 138.266 17.2191C138.643 17.2191 138.969 17.2842 139.242 17.4144C139.519 17.5446 139.745 17.7269 139.921 17.9613C140.097 18.1924 140.227 18.4659 140.312 18.7816C140.396 19.0941 140.438 19.4359 140.438 19.807V20.2123H136.493V19.475H139.535V19.4066C139.522 19.1722 139.473 18.9444 139.389 18.723C139.307 18.5017 139.177 18.3194 138.998 18.1761C138.819 18.0329 138.575 17.9613 138.266 17.9613C138.061 17.9613 137.872 18.0052 137.699 18.0931C137.527 18.1778 137.379 18.3047 137.255 18.474C137.131 18.6433 137.035 18.85 136.967 19.0941C136.898 19.3383 136.864 19.6198 136.864 19.9388V20.1439C136.864 20.3946 136.898 20.6306 136.967 20.8519C137.038 21.07 137.141 21.2621 137.274 21.4281C137.411 21.5941 137.576 21.7243 137.768 21.8187C137.963 21.9131 138.184 21.9603 138.432 21.9603C138.751 21.9603 139.021 21.8952 139.242 21.765C139.464 21.6348 139.657 21.4607 139.823 21.2426L140.37 21.6771C140.256 21.8497 140.111 22.014 139.936 22.1703C139.76 22.3265 139.543 22.4535 139.286 22.5511C139.032 22.6488 138.731 22.6976 138.383 22.6976Z" fill="white"/>
<path d="M72.3457 33.3916L68.8652 44H66.0615L70.8164 31.2031H72.6006L72.3457 33.3916ZM75.2373 44L71.748 33.3916L71.4668 31.2031H73.2686L78.0498 44H75.2373ZM75.0791 39.2363V41.3018H68.3203V39.2363H75.0791ZM81.3281 36.3184V47.6562H78.7969V34.4902H81.1436L81.3281 36.3184ZM87.3486 39.1396V39.3242C87.3486 40.0156 87.2666 40.6572 87.1025 41.249C86.9443 41.8408 86.71 42.3564 86.3994 42.7959C86.0889 43.2295 85.7021 43.5693 85.2393 43.8154C84.7822 44.0557 84.2549 44.1758 83.6572 44.1758C83.0771 44.1758 82.5732 44.0586 82.1455 43.8242C81.7178 43.5898 81.3574 43.2617 81.0645 42.8398C80.7773 42.4121 80.5459 41.917 80.3701 41.3545C80.1943 40.792 80.0596 40.1885 79.9658 39.5439V39.0605C80.0596 38.3691 80.1943 37.7363 80.3701 37.1621C80.5459 36.582 80.7773 36.0811 81.0645 35.6592C81.3574 35.2314 81.7148 34.9004 82.1367 34.666C82.5645 34.4316 83.0654 34.3145 83.6396 34.3145C84.2432 34.3145 84.7734 34.4287 85.2305 34.6572C85.6934 34.8857 86.0801 35.2139 86.3906 35.6416C86.707 36.0693 86.9443 36.5791 87.1025 37.1709C87.2666 37.7627 87.3486 38.4189 87.3486 39.1396ZM84.8086 39.3242V39.1396C84.8086 38.7354 84.7734 38.3633 84.7031 38.0234C84.6387 37.6777 84.5332 37.376 84.3867 37.1182C84.2461 36.8604 84.0586 36.6611 83.8242 36.5205C83.5957 36.374 83.3174 36.3008 82.9893 36.3008C82.6436 36.3008 82.3477 36.3564 82.1016 36.4678C81.8613 36.5791 81.665 36.7402 81.5127 36.9512C81.3604 37.1621 81.2461 37.4141 81.1699 37.707C81.0938 38 81.0469 38.3311 81.0293 38.7002V39.9219C81.0586 40.3555 81.1406 40.7451 81.2754 41.0908C81.4102 41.4307 81.6182 41.7002 81.8994 41.8994C82.1807 42.0986 82.5498 42.1982 83.0068 42.1982C83.3408 42.1982 83.6221 42.125 83.8506 41.9785C84.0791 41.8262 84.2637 41.6182 84.4043 41.3545C84.5508 41.0908 84.6533 40.7861 84.7119 40.4404C84.7764 40.0947 84.8086 39.7227 84.8086 39.3242ZM91.4531 36.3184V47.6562H88.9219V34.4902H91.2686L91.4531 36.3184ZM97.4736 39.1396V39.3242C97.4736 40.0156 97.3916 40.6572 97.2275 41.249C97.0693 41.8408 96.835 42.3564 96.5244 42.7959C96.2139 43.2295 95.8271 43.5693 95.3643 43.8154C94.9072 44.0557 94.3799 44.1758 93.7822 44.1758C93.2021 44.1758 92.6982 44.0586 92.2705 43.8242C91.8428 43.5898 91.4824 43.2617 91.1895 42.8398C90.9023 42.4121 90.6709 41.917 90.4951 41.3545C90.3193 40.792 90.1846 40.1885 90.0908 39.5439V39.0605C90.1846 38.3691 90.3193 37.7363 90.4951 37.1621C90.6709 36.582 90.9023 36.0811 91.1895 35.6592C91.4824 35.2314 91.8398 34.9004 92.2617 34.666C92.6895 34.4316 93.1904 34.3145 93.7646 34.3145C94.3682 34.3145 94.8984 34.4287 95.3555 34.6572C95.8184 34.8857 96.2051 35.2139 96.5156 35.6416C96.832 36.0693 97.0693 36.5791 97.2275 37.1709C97.3916 37.7627 97.4736 38.4189 97.4736 39.1396ZM94.9336 39.3242V39.1396C94.9336 38.7354 94.8984 38.3633 94.8281 38.0234C94.7637 37.6777 94.6582 37.376 94.5117 37.1182C94.3711 36.8604 94.1836 36.6611 93.9492 36.5205C93.7207 36.374 93.4424 36.3008 93.1143 36.3008C92.7686 36.3008 92.4727 36.3564 92.2266 36.4678C91.9863 36.5791 91.79 36.7402 91.6377 36.9512C91.4854 37.1621 91.3711 37.4141 91.2949 37.707C91.2188 38 91.1719 38.3311 91.1543 38.7002V39.9219C91.1836 40.3555 91.2656 40.7451 91.4004 41.0908C91.5352 41.4307 91.7432 41.7002 92.0244 41.8994C92.3057 42.0986 92.6748 42.1982 93.1318 42.1982C93.4658 42.1982 93.7471 42.125 93.9756 41.9785C94.2041 41.8262 94.3887 41.6182 94.5293 41.3545C94.6758 41.0908 94.7783 40.7861 94.8369 40.4404C94.9014 40.0947 94.9336 39.7227 94.9336 39.3242ZM110.35 40.6514C110.35 40.4229 110.314 40.2178 110.244 40.0361C110.18 39.8486 110.057 39.6787 109.875 39.5264C109.693 39.3682 109.438 39.2129 109.11 39.0605C108.782 38.9082 108.357 38.75 107.836 38.5859C107.256 38.3984 106.705 38.1875 106.184 37.9531C105.668 37.7188 105.211 37.4463 104.812 37.1357C104.42 36.8193 104.109 36.4531 103.881 36.0371C103.658 35.6211 103.547 35.1377 103.547 34.5869C103.547 34.0537 103.664 33.5703 103.898 33.1367C104.133 32.6973 104.461 32.3223 104.883 32.0117C105.305 31.6953 105.803 31.4521 106.377 31.2822C106.957 31.1123 107.593 31.0273 108.284 31.0273C109.228 31.0273 110.051 31.1973 110.754 31.5371C111.457 31.877 112.002 32.3428 112.389 32.9346C112.781 33.5264 112.978 34.2031 112.978 34.9648H110.358C110.358 34.5898 110.279 34.2617 110.121 33.9805C109.969 33.6934 109.734 33.4678 109.418 33.3037C109.107 33.1396 108.715 33.0576 108.24 33.0576C107.783 33.0576 107.402 33.1279 107.098 33.2686C106.793 33.4033 106.564 33.5879 106.412 33.8223C106.26 34.0508 106.184 34.3086 106.184 34.5957C106.184 34.8125 106.236 35.0088 106.342 35.1846C106.453 35.3604 106.617 35.5244 106.834 35.6768C107.051 35.8291 107.317 35.9727 107.634 36.1074C107.95 36.2422 108.316 36.374 108.732 36.5029C109.43 36.7139 110.042 36.9512 110.569 37.2148C111.103 37.4785 111.548 37.7744 111.905 38.1025C112.263 38.4307 112.532 38.8027 112.714 39.2188C112.896 39.6348 112.986 40.1064 112.986 40.6338C112.986 41.1904 112.878 41.6885 112.661 42.1279C112.444 42.5674 112.131 42.9395 111.721 43.2441C111.311 43.5488 110.821 43.7803 110.253 43.9385C109.685 44.0967 109.049 44.1758 108.346 44.1758C107.713 44.1758 107.089 44.0938 106.474 43.9297C105.858 43.7598 105.299 43.5049 104.795 43.165C104.297 42.8252 103.898 42.3916 103.6 41.8643C103.301 41.3369 103.151 40.7129 103.151 39.9922H105.797C105.797 40.3906 105.858 40.7275 105.981 41.0029C106.104 41.2783 106.277 41.501 106.5 41.6709C106.729 41.8408 106.998 41.9639 107.309 42.04C107.625 42.1162 107.971 42.1543 108.346 42.1543C108.803 42.1543 109.178 42.0898 109.471 41.9609C109.77 41.832 109.989 41.6533 110.13 41.4248C110.276 41.1963 110.35 40.9385 110.35 40.6514ZM119.279 34.4902V36.2832H113.742V34.4902H119.279ZM115.113 32.1436H117.645V41.1348C117.645 41.4102 117.68 41.6211 117.75 41.7676C117.826 41.9141 117.938 42.0166 118.084 42.0752C118.23 42.1279 118.415 42.1543 118.638 42.1543C118.796 42.1543 118.937 42.1484 119.06 42.1367C119.188 42.1191 119.297 42.1016 119.385 42.084L119.394 43.9473C119.177 44.0176 118.942 44.0732 118.69 44.1143C118.438 44.1553 118.16 44.1758 117.855 44.1758C117.299 44.1758 116.812 44.085 116.396 43.9033C115.986 43.7158 115.67 43.417 115.447 43.0068C115.225 42.5967 115.113 42.0576 115.113 41.3896V32.1436ZM120.088 39.3418V39.1572C120.088 38.46 120.188 37.8184 120.387 37.2324C120.586 36.6406 120.876 36.1279 121.257 35.6943C121.638 35.2607 122.106 34.9238 122.663 34.6836C123.22 34.4375 123.858 34.3145 124.579 34.3145C125.3 34.3145 125.941 34.4375 126.504 34.6836C127.066 34.9238 127.538 35.2607 127.919 35.6943C128.306 36.1279 128.599 36.6406 128.798 37.2324C128.997 37.8184 129.097 38.46 129.097 39.1572V39.3418C129.097 40.0332 128.997 40.6748 128.798 41.2666C128.599 41.8525 128.306 42.3652 127.919 42.8047C127.538 43.2383 127.069 43.5752 126.513 43.8154C125.956 44.0557 125.317 44.1758 124.597 44.1758C123.876 44.1758 123.234 44.0557 122.672 43.8154C122.115 43.5752 121.644 43.2383 121.257 42.8047C120.876 42.3652 120.586 41.8525 120.387 41.2666C120.188 40.6748 120.088 40.0332 120.088 39.3418ZM122.619 39.1572V39.3418C122.619 39.7402 122.654 40.1123 122.725 40.458C122.795 40.8037 122.906 41.1084 123.059 41.3721C123.217 41.6299 123.422 41.832 123.674 41.9785C123.926 42.125 124.233 42.1982 124.597 42.1982C124.948 42.1982 125.25 42.125 125.502 41.9785C125.754 41.832 125.956 41.6299 126.108 41.3721C126.261 41.1084 126.372 40.8037 126.442 40.458C126.519 40.1123 126.557 39.7402 126.557 39.3418V39.1572C126.557 38.7705 126.519 38.4072 126.442 38.0674C126.372 37.7217 126.258 37.417 126.1 37.1533C125.947 36.8838 125.745 36.6729 125.493 36.5205C125.241 36.3682 124.937 36.292 124.579 36.292C124.222 36.292 123.917 36.3682 123.665 36.5205C123.419 36.6729 123.217 36.8838 123.059 37.1533C122.906 37.417 122.795 37.7217 122.725 38.0674C122.654 38.4072 122.619 38.7705 122.619 39.1572ZM133.184 36.5645V44H130.652V34.4902H133.034L133.184 36.5645ZM136.049 34.4287L136.005 36.7754C135.882 36.7578 135.732 36.7432 135.557 36.7314C135.387 36.7139 135.231 36.7051 135.091 36.7051C134.733 36.7051 134.423 36.752 134.159 36.8457C133.901 36.9336 133.685 37.0654 133.509 37.2412C133.339 37.417 133.21 37.6309 133.122 37.8828C133.04 38.1348 132.993 38.4219 132.981 38.7441L132.472 38.5859C132.472 37.9707 132.533 37.4053 132.656 36.8896C132.779 36.3682 132.958 35.9141 133.192 35.5273C133.433 35.1406 133.726 34.8418 134.071 34.6309C134.417 34.4199 134.812 34.3145 135.258 34.3145C135.398 34.3145 135.542 34.3262 135.688 34.3496C135.835 34.3672 135.955 34.3936 136.049 34.4287ZM141.445 44.1758C140.707 44.1758 140.045 44.0586 139.459 43.8242C138.873 43.584 138.375 43.2529 137.965 42.8311C137.561 42.4092 137.25 41.9199 137.033 41.3633C136.816 40.8008 136.708 40.2031 136.708 39.5703V39.2188C136.708 38.498 136.811 37.8389 137.016 37.2412C137.221 36.6436 137.514 36.125 137.895 35.6855C138.281 35.2461 138.75 34.9092 139.301 34.6748C139.852 34.4346 140.473 34.3145 141.164 34.3145C141.838 34.3145 142.436 34.4258 142.957 34.6484C143.479 34.8711 143.915 35.1875 144.267 35.5977C144.624 36.0078 144.894 36.5 145.075 37.0742C145.257 37.6426 145.348 38.2754 145.348 38.9727V40.0273H137.789V38.3398H142.86V38.1465C142.86 37.7949 142.796 37.4814 142.667 37.2061C142.544 36.9248 142.356 36.7021 142.104 36.5381C141.853 36.374 141.53 36.292 141.138 36.292C140.804 36.292 140.517 36.3652 140.276 36.5117C140.036 36.6582 139.84 36.8633 139.688 37.127C139.541 37.3906 139.43 37.7012 139.354 38.0586C139.283 38.4102 139.248 38.7969 139.248 39.2188V39.5703C139.248 39.9512 139.301 40.3027 139.406 40.625C139.518 40.9473 139.673 41.2256 139.872 41.46C140.077 41.6943 140.323 41.876 140.61 42.0049C140.903 42.1338 141.234 42.1982 141.604 42.1982C142.061 42.1982 142.485 42.1104 142.878 41.9346C143.276 41.7529 143.619 41.4805 143.906 41.1172L145.137 42.4531C144.938 42.7402 144.665 43.0156 144.319 43.2793C143.979 43.543 143.569 43.7598 143.089 43.9297C142.608 44.0938 142.061 44.1758 141.445 44.1758Z" fill="white"/>
</svg>
